<?xml version="1.0" encoding="UTF-8"?>
<!DOCTYPE svg PUBLIC "-//W3C//DTD SVG 1.1//EN" "http://www.w3.org/Graphics/SVG/1.1/DTD/svg11.dtd">
<svg version="1.1" xmlns="http://www.w3.org/2000/svg" xmlns:xlink="http://www.w3.org/1999/xlink" x="0px" y="0px" viewBox="0 0 157.594 68.248" enable-background="new 0 0 157.594 68.248" xml:space="preserve">
<g id="rubber">
	<g>
		<path fill="none" d="M83.596,17.307c-1.526-0.434-3.132-0.682-4.799-0.682s-3.272,0.248-4.799,0.682    c-5.802,1.654-10.365,6.217-12.019,12.02c-0.436,1.525-0.683,3.133-0.683,4.799s0.247,3.271,0.683,4.799    c1.652,5.801,6.215,10.363,12.015,12.018c1.528,0.436,3.135,0.684,4.803,0.684s3.274-0.248,4.803-0.684    c5.8-1.654,10.362-6.217,12.015-12.018c0.436-1.527,0.683-3.133,0.683-4.799s-0.247-3.273-0.683-4.799    C93.961,23.523,89.397,18.961,83.596,17.307z"/>
		<path fill="#F5ECDE" d="M73.994,50.941c-5.8-1.654-10.362-6.217-12.015-12.018v0.057c-5.524,5.688-15.484,5.693-15.637,5.693    c3.364,10.359,11.545,18.541,21.904,21.906c-0.001-0.137,0.001-10.109,5.693-15.639H73.994z"/>
		<path fill="#F5ECDE" d="M83.596,17.307c5.802,1.654,10.365,6.217,12.019,12.02v-0.059c5.522-5.686,15.478-5.693,15.637-5.693    C107.886,13.217,99.705,5.035,89.347,1.67c0.001,0.156-0.007,10.113-5.693,15.637H83.596z"/>
		<path fill="#F5ECDE" d="M61.979,29.326c1.653-5.803,6.217-10.365,12.019-12.02H73.94c-5.687-5.523-5.694-15.48-5.693-15.637    C57.889,5.035,49.708,13.217,46.343,23.574c0.159,0,10.114,0.008,15.637,5.693V29.326z"/>
		<path fill="#F5ECDE" d="M95.614,38.924c-1.652,5.801-6.215,10.363-12.015,12.018h0.054c5.692,5.529,5.694,15.502,5.693,15.639    c10.359-3.365,18.54-11.547,21.904-21.906c-0.152,0-10.112-0.006-15.637-5.693V38.924z"/>
		<path fill="#E9494B" d="M73.998,17.307c1.526-0.434,3.132-0.682,4.799-0.682s3.272,0.248,4.799,0.682h0.058    c5.687-5.523,5.694-15.48,5.693-15.637C86.024,0.59,82.479,0,78.797,0s-7.228,0.59-10.55,1.67    c-0.001,0.156,0.007,10.113,5.693,15.637H73.998z"/>
		<path fill="#E9494B" d="M111.251,23.574c-0.159,0-10.114,0.008-15.637,5.693v0.059c0.436,1.525,0.683,3.133,0.683,4.799    s-0.247,3.271-0.683,4.799v0.057c5.524,5.688,15.484,5.693,15.637,5.693c1.08-3.322,1.671-6.865,1.671-10.549    S112.331,26.896,111.251,23.574z"/>
		<path fill="#E9494B" d="M83.6,50.941c-1.528,0.436-3.135,0.684-4.803,0.684s-3.274-0.248-4.803-0.684H73.94    c-5.692,5.529-5.694,15.502-5.693,15.639c3.311,1.074,6.842,1.664,10.512,1.668h0.038h0.038c3.67-0.004,7.201-0.594,10.512-1.668    c0.001-0.137-0.001-10.109-5.693-15.639H83.6z"/>
		<path fill="#E9494B" d="M61.979,38.924c-0.436-1.527-0.683-3.133-0.683-4.799s0.247-3.273,0.683-4.799v-0.059    c-5.522-5.686-15.478-5.693-15.637-5.693c-1.08,3.322-1.671,6.867-1.671,10.551s0.591,7.227,1.671,10.549    c0.152,0,10.112-0.006,15.637-5.693V38.924z"/>
	</g>
	
		<animateTransform attributeName="transform" attributeType="XML" type="rotate" from="360 78.797 34.124" to="0 78.797 34.124" dur="8s" repeatCount="indefinite"/>

</g>
<g id="four-right">
	<g>
		<path fill="#F5ECDE" d="M144.467,37.109V11.815c0-2.188,1.05-4.376,4.375-4.376c3.326,0,4.377,2.188,4.377,4.376v25.294    c2.274,0,4.375,1.226,4.375,4.376s-2.101,4.376-4.375,4.376v17.854c0,2.802-1.227,4.377-4.377,4.377s-4.375-1.575-4.375-4.377    V45.861h-25.732V4.376c0-2.188,1.051-4.376,4.377-4.376c3.325,0,4.375,2.188,4.375,4.376v32.733H144.467z"/>
	</g>
</g>
<g id="four-left">
	<g>
		<path fill="#F5ECDE" d="M25.732,37.109V11.815c0-2.188,1.05-4.376,4.375-4.376c3.326,0,4.377,2.188,4.377,4.376v25.294    c2.274,0,4.375,1.226,4.375,4.376s-2.101,4.376-4.375,4.376v17.854c0,2.802-1.227,4.377-4.377,4.377s-4.375-1.575-4.375-4.377    V45.861H0V4.376C0,2.188,1.051,0,4.377,0c3.325,0,4.375,2.188,4.375,4.376v32.733H25.732z"/>
	</g>
</g>
</svg>